<?xml version="1.0" encoding="utf-8"?>
<!-- Generator: Adobe Illustrator 27.0.0, SVG Export Plug-In . SVG Version: 6.00 Build 0)  -->
<svg version="1.1" id="Layer_1" xmlns="http://www.w3.org/2000/svg" xmlns:xlink="http://www.w3.org/1999/xlink" x="0px" y="0px"
	 viewBox="0 0 457.06 68.97" style="enable-background:new 0 0 457.06 68.97;" xml:space="preserve">
<style type="text/css">
	.st0{fill:url(#SVGID_1_);}
	.st1{fill:url(#SVGID_00000090283994348469568500000004905653625719277728_);}
	.st2{fill:url(#SVGID_00000073688392314218567530000006599884384834467202_);}
	.st3{fill:url(#SVGID_00000163071799596783368930000009685024374912855470_);}
	.st4{fill:url(#SVGID_00000132793201558682351300000016977843652099830168_);}
	.st5{fill:#FFFFFF;}
</style>
<path d="M83.72,34.97"/>
<g>
	
		<linearGradient id="SVGID_1_" gradientUnits="userSpaceOnUse" x1="48.3769" y1="59.9182" x2="48.3642" y2="13.7941" gradientTransform="matrix(1 0 0 -1 0 70)">
		<stop  offset="0" style="stop-color:#275BFF"/>
		<stop  offset="1" style="stop-color:#033EF9"/>
	</linearGradient>
	<path class="st0" d="M48.37,65.43L48.37,65.43c-2.14,0-3.88-1.73-3.88-3.88V8.39c0-2.14,1.73-3.88,3.88-3.88l0,0
		c2.14,0,3.88,1.73,3.88,3.88v53.16C52.24,63.69,50.51,65.43,48.37,65.43z"/>
	<g>
		
			<linearGradient id="SVGID_00000158025721108857131090000017916841242409428399_" gradientUnits="userSpaceOnUse" x1="7.5796" y1="44.0895" x2="7.2022" y2="25.0506" gradientTransform="matrix(1 0 0 -1 0 70)">
			<stop  offset="0.2989" style="stop-color:#275BFF"/>
			<stop  offset="0.8511" style="stop-color:#033EF9"/>
		</linearGradient>
		<path style="fill:url(#SVGID_00000158025721108857131090000017916841242409428399_);" d="M7.4,42.17L7.4,42.17
			c-2.14,0-3.88-1.73-3.88-3.88v-6.64c0-2.14,1.73-3.88,3.88-3.88l0,0c2.14,0,3.88,1.73,3.88,3.88v6.64
			C11.28,40.43,9.55,42.17,7.4,42.17z"/>
		
			<linearGradient id="SVGID_00000026151339200636735800000009359407974262072499_" gradientUnits="userSpaceOnUse" x1="26.8656" y1="56.2987" x2="26.7588" y2="15.8561" gradientTransform="matrix(1 0 0 -1 0 70)">
			<stop  offset="0.2989" style="stop-color:#275BFF"/>
			<stop  offset="0.8511" style="stop-color:#033EF9"/>
		</linearGradient>
		<path style="fill:url(#SVGID_00000026151339200636735800000009359407974262072499_);" d="M33.54,13.52
			c-1.88,0.33-3.17,2.11-3.17,4.02v8.63c0,1.97-1.6,3.57-3.57,3.57l0,0c-1.97,0-3.57-1.6-3.57-3.57v-1.51
			c0-1.91-1.29-3.69-3.17-4.02c-2.45-0.43-4.58,1.44-4.58,3.81v20.83c0,1.91,1.29,3.69,3.17,4.02c2.45,0.43,4.58-1.44,4.58-3.81
			v-1.72c0-1.97,1.6-3.57,3.57-3.57l0,0c1.97,0,3.57,1.6,3.57,3.57v8.63c0,1.91,1.29,3.69,3.17,4.02c2.45,0.43,4.58-1.44,4.58-3.81
			V17.33C38.12,14.96,35.99,13.08,33.54,13.52z"/>
	</g>
	<g>
		
			<linearGradient id="SVGID_00000071550790405962859190000008580828441242732223_" gradientUnits="userSpaceOnUse" x1="89.1322" y1="43.337" x2="89.2704" y2="26.4189" gradientTransform="matrix(1 0 0 -1 0 70)">
			<stop  offset="0.2989" style="stop-color:#275BFF"/>
			<stop  offset="0.8511" style="stop-color:#033EF9"/>
		</linearGradient>
		<path style="fill:url(#SVGID_00000071550790405962859190000008580828441242732223_);" d="M89.2,42.17L89.2,42.17
			c2.14,0,3.88-1.73,3.88-3.88v-6.64c0-2.14-1.73-3.88-3.88-3.88l0,0c-2.14,0-3.88,1.73-3.88,3.88v6.64
			C85.33,40.43,87.06,42.17,89.2,42.17z"/>
		
			<linearGradient id="SVGID_00000168797669461308017500000000570990025087049371_" gradientUnits="userSpaceOnUse" x1="69.926" y1="47.3366" x2="69.6222" y2="24.7083" gradientTransform="matrix(1 0 0 -1 0 70)">
			<stop  offset="0.4071" style="stop-color:#275BFF"/>
			<stop  offset="0.8511" style="stop-color:#033EF9"/>
		</linearGradient>
		<path style="fill:url(#SVGID_00000168797669461308017500000000570990025087049371_);" d="M63.02,13.51
			c1.91,0.31,3.22,2.1,3.22,4.03v8.63c0,1.97,1.6,3.57,3.57,3.57l0,0c1.97,0,3.57-1.6,3.57-3.57v-1.51c0-1.93,1.32-3.72,3.22-4.03
			c2.43-0.39,4.53,1.47,4.53,3.82v20.83c0,1.93-1.32,3.72-3.22,4.03c-2.43,0.4-4.53-1.47-4.53-3.82v-1.72c0-1.97-1.6-3.57-3.57-3.57
			l0,0c-1.97,0-3.57,1.6-3.57,3.57v8.63c0,1.93-1.32,3.72-3.22,4.03c-2.43,0.39-4.53-1.47-4.53-3.82V17.33
			C58.49,14.98,60.59,13.11,63.02,13.51z"/>
	</g>
</g>
<g>
	<g>
		<path class="st5" d="M112.78,21.62l3.15,27.65c0.2,1.54,0.87,2.28,2.55,2.28c1.61,0,2.28-0.67,2.62-1.95l5.03-21.48
			c1.07-4.7,4.09-7.18,9.73-7.18s8.39,2.48,9.46,7.18l4.77,21.48c0.27,1.28,1.07,1.95,2.69,1.95c1.61,0,2.21-0.74,2.42-2.28
			l3.69-27.65h7.72l-3.96,28.06c-0.67,4.9-3.49,8.19-9.93,8.19c-5.5,0-8.46-2.42-9.53-7.32L138.42,29
			c-0.27-1.21-1.28-1.75-2.62-1.75c-1.41,0-2.35,0.54-2.62,1.75l-5.03,21.55c-1.14,4.9-4.16,7.32-9.8,7.32
			c-6.58,0-8.93-3.29-9.6-8.19l-3.69-28.06H112.78z"/>
		<path class="st5" d="M196.41,21.62c8.86,0,12.35,4.97,12.35,11.68v16.65c0,5.1-1.34,7.12-7.32,7.12h-16.58
			c-8.39,0-11.88-4.09-11.88-10.81c0-6.44,3.22-10.2,11.95-10.2h16.85v-2.68c0-2.75-1.54-4.9-5.44-4.9h-21.21v-6.85h21.28V21.62z
			 M201.77,48.33v-6.64h-16.71c-3.76,0-5.1,1.54-5.1,4.16s1.41,4.3,4.97,4.3h14.9C201.24,50.15,201.77,49.61,201.77,48.33z"/>
		<path class="st5" d="M220.57,21.62l11.81,28.46c0.27,0.74,0.87,1.07,1.75,1.07c0.94,0,1.54-0.34,1.88-1.07l12.28-28.46h7.65
			l-13.69,31.61c-1.48,3.36-4.09,4.63-8.12,4.63c-4.09,0-6.71-1.34-8.05-4.63l-13.02-31.61C213.06,21.62,220.57,21.62,220.57,21.62z
			"/>
		<path class="st5" d="M283.45,21.62c8.39,0,11.95,4.03,11.95,10.87c0,6.51-3.29,10.2-12.01,10.2h-16.85v2.55
			c0,2.82,1.54,4.9,5.44,4.9h21.68v6.91h-21.68c-8.86,0-12.35-4.97-12.35-11.68V33.3c0-6.71,3.49-11.68,12.35-11.68
			C271.98,21.62,283.45,21.62,283.45,21.62z M266.54,37.13h16.65c3.83,0,5.24-1.61,5.24-4.23c0-2.69-1.54-4.43-5.03-4.43h-11.41
			c-3.89,0-5.44,2.15-5.44,4.9L266.54,37.13L266.54,37.13z"/>
	</g>
	<g>
		<g>
			<path class="st5" d="M343.53,21.71c12,0,17.9,5.7,17.9,15.49v19.91h-7.17V37.2c0-5.56-3.22-8.65-10.66-8.65h-8.31v28.56h-7.17
				V28.55h-17.97c-0.6,0-0.87,0.34-0.87,1.01v27.55h-7.11v-29.9c0-4.16,1.41-5.5,4.96-5.5C307.13,21.71,343.53,21.71,343.53,21.71z"
				/>
			<path class="st5" d="M394,21.71c8.85,0,12.34,4.96,12.34,11.66V50c0,5.1-1.34,7.11-7.31,7.11h-16.56
				c-8.38,0-11.87-4.09-11.87-10.79c0-6.44,3.22-10.19,11.93-10.19h16.83v-2.68c0-2.75-1.54-4.89-5.43-4.89h-21.18v-6.84H394V21.71z
				 M399.37,48.39v-6.64h-16.69c-3.75,0-5.1,1.54-5.1,4.16s1.41,4.29,4.96,4.29h14.88C398.83,50.2,399.37,49.67,399.37,48.39z"/>
			<path class="st5" d="M420.75,21.71l11.73,12.8l12.2-12.8h8.85L436.9,39.34l16.83,17.77h-9.05L432.21,43.5l-12.74,13.61h-8.85
				l17.23-18.44l-16.09-16.96H420.75z"/>
		</g>
	</g>
</g>
</svg>
